<?xml version="1.0" encoding="utf-8"?>
<!-- Generator: Adobe Illustrator 18.0.0, SVG Export Plug-In . SVG Version: 6.00 Build 0)  -->
<!DOCTYPE svg PUBLIC "-//W3C//DTD SVG 1.1//EN" "http://www.w3.org/Graphics/SVG/1.1/DTD/svg11.dtd">
<svg version="1.1" id="Layer_1" xmlns="http://www.w3.org/2000/svg" xmlns:xlink="http://www.w3.org/1999/xlink" x="0px" y="0px"
	 viewBox="0 0 260 260" enable-background="new 0 0 260 260" xml:space="preserve">
<rect x="-0.4" fill="#ED3628" width="260" height="260"/>
<g>
	<rect x="9.6" y="10" fill="#BE1E2D" width="240" height="240"/>
	<polygon fill="#F05A28" points="242.2,231.5 130.7,238 16.9,230.2 16.9,43.9 130.7,50.4 242.2,43.9 	"/>
	<g>
		<g>
			<g>
				<polygon fill="#DC5527" points="241.5,225.2 137.7,238.1 31.7,223.9 31.7,37.5 137.7,50.5 241.5,37.5 				"/>
			</g>
			<polygon fill="#FFFFFF" points="234.5,221.2 130.7,234.1 24.7,219.9 24.7,33.5 130.7,46.5 234.5,33.5 			"/>
		</g>
		<polygon fill="none" stroke="#FFFFFF" stroke-miterlimit="10" points="234.5,221.2 130.7,234.1 24.7,219.9 24.7,33.5 130.7,46.5 
			234.5,33.5 		"/>
	</g>
	<g>
		<g>
			<polygon fill="#DC5527" points="226.9,212.3 138.7,238.2 48.2,211 48.2,24.7 138.7,50.5 226.9,24.7 			"/>
			<polygon fill="none" stroke="#DC5527" stroke-miterlimit="10" points="226.9,212.3 138.7,238.2 48.2,211 48.2,24.7 138.7,50.5 
				226.9,24.7 			"/>
		</g>
		<g>
			<polygon fill="#FFFFFF" points="218.9,208.3 130.7,234.2 40.2,207 40.2,20.7 130.7,46.5 218.9,20.7 			"/>
			<polygon fill="none" stroke="#FFFFFF" stroke-miterlimit="10" points="218.9,208.3 130.7,234.2 40.2,207 40.2,20.7 130.7,46.5 
				218.9,20.7 			"/>
		</g>
	</g>
</g>
</svg>
