<?xml version="1.0" encoding="utf-8"?>
<!-- Generator: Adobe Illustrator 18.0.0, SVG Export Plug-In . SVG Version: 6.00 Build 0)  -->
<!DOCTYPE svg PUBLIC "-//W3C//DTD SVG 1.1//EN" "http://www.w3.org/Graphics/SVG/1.1/DTD/svg11.dtd">
<svg version="1.1" id="Layer_1" xmlns="http://www.w3.org/2000/svg" xmlns:xlink="http://www.w3.org/1999/xlink" x="0px" y="0px"
	 viewBox="0 0 260 260" enable-background="new 0 0 260 260" xml:space="preserve">
<rect fill="#ED3628" width="260" height="260"/>
<g>
	<rect x="10" y="10" fill="#CB2128" width="240" height="240"/>
	<g>
		<polygon fill="#ED3628" points="135.4,83.3 154.3,91.5 185.4,126.5 167,118.9 		"/>
		<rect x="29" y="21.5" fill="#1B75BB" width="183.6" height="61.7"/>
		<rect x="47.4" y="29.8" fill="#F0602D" width="183.6" height="61.7"/>
		<polygon fill="#FCF2F0" points="29,21.5 47.4,29.8 231,29.8 212.6,21.5 		"/>
		<polygon fill="#ED3628" points="29,21.5 47.4,29.8 47.4,91.5 29,83.3 		"/>
		<polygon fill="#F0602D" points="217.1,90.9 185.4,126.5 153.7,90.9 		"/>
	</g>
	<g>
		<polygon fill="#ED3628" points="124.6,199.4 105.7,207.7 74.6,242.7 93,235.1 		"/>
		<rect x="47.4" y="137.7" fill="#1B75BB" width="183.6" height="61.7"/>
		<rect x="29" y="145.9" fill="#F0602D" width="183.6" height="61.7"/>
		<polygon fill="#FCF2F0" points="231,137.7 212.6,145.9 29,145.9 47.4,137.7 		"/>
		<polygon fill="#ED3628" points="231,137.7 212.6,145.9 212.6,207.7 231,199.4 		"/>
		<polygon fill="#F0602D" points="42.9,207.1 74.6,242.7 106.3,207.1 		"/>
	</g>
</g>
</svg>
